# xmcd
#
# Track frame offsets: 
#        300
#        22755
#        38982
#        53132
#        73900
#        98502
#        123145
#        143029
#        165048
#        184768
#        206570
#        228917
#        249644
#        268730
#        290835
#        307411
#        324119
#
# Disc length: 4611 seconds
#
# Revision: 0
# Processed by: cddbd v1.5.2PL0 Copyright (c) Steve Scherf et al.
# Submitted via: ExactAudioCopy v1.0b1
#
DISCID=ed11ff11
DTITLE=Colin James - Take It From The Top: Best Of
DYEAR=2011
DGENRE=Contemporary Blues
TTITLE0=Just Came Back
TTITLE1=Man's Gotta Be A Stone
TTITLE2=It's Gonna Be Alright
TTITLE3=Five Long Years
TTITLE4=Why'd You Lie?
TTITLE5=Freedom
TTITLE6=Into The Mystic
TTITLE7=National Steel
TTITLE8=Real Stuff
TTITLE9=Hide
TTITLE10=I'm Losing You
TTITLE11=I Hope You're Happy
TTITLE12=Them Changes
TTITLE13=Make A Mistake
TTITLE14=Voodoo Thing
TTITLE15=Keep On Loving Me Baby
TTITLE16=Stay
EXTD=
EXTT0=
EXTT1=
EXTT2=
EXTT3=
EXTT4=
EXTT5=
EXTT6=
EXTT7=
EXTT8=
EXTT9=
EXTT10=
EXTT11=
EXTT12=
EXTT13=
EXTT14=
EXTT15=
EXTT16=
PLAYORDER=
